<svg width="786" height="1110" viewBox="0 0 786 1110" fill="none" xmlns="http://www.w3.org/2000/svg">
<path d="M164.413 416.663L215.337 467.587L165.072 517.852L165.69 619L316.525 468.165L163.795 315.516L164.413 416.663Z" fill="#344B5F" fill-opacity="0.2"/>
<path d="M98.0788 445.111L119.823 466.856L98.3603 488.319L98.6241 531.509L163.031 467.102L97.8149 401.921L98.0788 445.111Z" fill="#344B5F" fill-opacity="0.2"/>
<path d="M316.887 262.763L367.812 313.688L317.547 363.952L318.165 465.1L469 314.265L316.269 161.616L316.887 262.763Z" fill="#344B5F" fill-opacity="0.2"/>
<path d="M250.554 291.211L272.298 312.956L250.835 334.419L251.099 377.609L315.506 313.202L250.29 248.021L250.554 291.211Z" fill="#344B5F" fill-opacity="0.2"/>
<path d="M151.413 101.188L202.337 152.112L152.072 202.377L152.69 303.525L303.525 152.69L150.795 0.0405595L151.413 101.188Z" fill="#344B5F" fill-opacity="0.2"/>
<path d="M85.0789 129.636L106.823 151.381L85.3604 172.844L85.6243 216.034L150.031 151.627L84.815 86.4461L85.0789 129.636Z" fill="#344B5F" fill-opacity="0.2"/>
<path d="M469.413 737.663L520.337 788.587L470.072 838.852L470.69 940L621.525 789.165L468.795 636.516L469.413 737.663Z" fill="#344B5F" fill-opacity="0.2"/>
<path d="M403.079 766.111L424.823 787.856L403.36 809.319L403.624 852.509L468.031 788.102L402.815 722.921L403.079 766.111Z" fill="#344B5F" fill-opacity="0.2"/>
<path d="M633.413 576.188L684.337 627.112L634.072 677.377L634.69 778.525L785.525 627.69L632.795 475.041L633.413 576.188Z" fill="#344B5F" fill-opacity="0.2"/>
<path d="M567.079 604.636L588.823 626.381L567.36 647.844L567.624 691.034L632.031 626.627L566.815 561.446L567.079 604.636Z" fill="#344B5F" fill-opacity="0.2"/>
<path d="M470.838 414.188L521.762 465.112L471.497 515.377L472.115 616.525L622.95 465.69L470.22 313.041L470.838 414.188Z" fill="#344B5F" fill-opacity="0.2"/>
<path d="M404.504 442.636L426.248 464.381L404.785 485.844L405.049 529.034L469.456 464.627L404.24 399.446L404.504 442.636Z" fill="#344B5F" fill-opacity="0.2"/>
<path d="M339.587 907.663L288.663 958.587L338.928 1008.85L338.31 1110L187.475 959.165L340.205 806.516L339.587 907.663Z" fill="#344B5F" fill-opacity="0.2"/>
<path d="M405.921 936.111L384.177 957.856L405.64 979.319L405.376 1022.51L340.969 958.102L406.185 892.921L405.921 936.111Z" fill="#344B5F" fill-opacity="0.2"/>
<path d="M187.113 753.763L136.188 804.688L186.453 854.952L185.835 956.1L35.0001 805.265L187.731 652.616L187.113 753.763Z" fill="#344B5F" fill-opacity="0.2"/>
<path d="M253.446 782.211L231.702 803.956L253.165 825.419L252.901 868.609L188.494 804.202L253.71 739.021L253.446 782.211Z" fill="#344B5F" fill-opacity="0.2"/>
<path d="M338.162 584.188L287.238 635.112L337.503 685.377L336.885 786.525L186.05 635.69L338.78 483.041L338.162 584.188Z" fill="#344B5F" fill-opacity="0.2"/>
<path d="M404.496 612.636L382.752 634.381L404.215 655.844L403.951 699.034L339.544 634.627L404.76 569.446L404.496 612.636Z" fill="#344B5F" fill-opacity="0.2"/>
</svg>
