<svg width="484" height="484" viewBox="0 0 484 484" fill="none" xmlns="http://www.w3.org/2000/svg">
<path d="M258.331 236.655H166.505V144.903L74.7527 53.1509V328.482L350.083 328.407L258.331 236.655Z" fill="white"/>
<path d="M151.881 407.837C149.58 411.103 145.645 413.33 141.191 413.33C134.51 413.33 129.537 408.208 129.537 401.304C129.537 394.92 133.991 389.13 140.969 389.13C145.497 389.13 149.431 391.283 151.955 394.623V407.837H151.881ZM152.326 382.672C148.837 379.851 144.383 378.218 139.336 378.218C127.31 378.218 117.585 388.239 117.585 401.304C117.585 407.317 119.812 412.81 123.227 416.819C127.161 421.347 133.323 424.317 139.929 424.317C144.383 424.317 148.615 422.98 152.252 419.863V423.426H163.684V379.183H152.326V382.672Z" fill="white"/>
<path d="M194.12 378.218C189.22 378.218 184.989 379.925 181.648 382.672V379.109H170.217V423.352H182.094V394.623C183.727 392.322 187.884 389.13 192.858 389.13C195.604 389.13 197.98 390.021 199.539 391.58C201.172 393.213 202.211 395.514 202.211 399.894V423.352H214.088V400.859C214.088 393.287 212.455 388.833 209.56 385.344C205.774 380.964 200.207 378.218 194.12 378.218Z" fill="white"/>
<path d="M333.826 387.794C338.651 387.794 342.215 391.654 342.586 395.514H324.324C324.844 391.506 328.853 387.794 333.826 387.794ZM335.756 414.666C329.446 414.666 324.473 410.361 323.805 404.199H354.463C354.611 403.16 354.76 401.972 354.76 400.785C354.76 388.462 346.075 378.144 333.826 378.144C320.687 378.144 312.299 388.907 312.299 401.23C312.299 415.112 322.246 424.242 335.459 424.242C342.289 424.242 349.341 421.421 353.646 416.299L346.891 409.544C344.738 411.845 340.73 414.666 335.756 414.666Z" fill="white"/>
<path d="M394.994 407.763L394.697 407.54C392.767 410.435 388.981 413.404 384.082 413.404C376.881 413.404 371.834 408.282 371.834 401.378C371.834 394.623 376.956 389.204 383.785 389.204C388.091 389.204 391.58 391.357 393.955 394.475L401.898 386.532C397.741 381.558 391.134 378.292 383.785 378.292C370.275 378.292 359.956 388.536 359.956 401.378C359.956 414.147 369.978 424.391 383.711 424.391C391.505 424.391 397.741 421.718 402.789 415.705L394.994 407.763Z" fill="white"/>
<path d="M286.466 391.802C286.466 389.501 289.212 388.239 292.478 388.239C294.854 388.239 296.784 388.833 299.085 390.021L306.434 382.523C303.02 380.148 297.007 378.144 291.588 378.218C282.828 378.218 274.588 383.488 274.588 392.025C274.588 406.278 296.042 403.902 296.042 410.583C296.042 412.736 293.592 414.295 290.4 414.295C286.688 414.295 281.937 412.885 278.82 410.361L271.47 417.71C276.667 421.496 284.239 424.391 290.326 424.391C299.605 424.391 307.919 419.194 307.919 410.732C307.919 395.217 286.466 397.518 286.466 391.802Z" fill="white"/>
<path d="M253.655 407.837C251.353 411.103 247.419 413.33 242.965 413.33C236.284 413.33 231.31 408.208 231.31 401.304C231.31 394.92 235.764 389.13 242.742 389.13C247.345 389.13 251.205 391.283 253.729 394.623V407.837H253.655ZM253.655 359.511V382.3C250.166 379.554 246.009 378.217 241.183 378.217C229.158 378.217 219.433 388.239 219.433 401.304C219.433 407.317 221.66 412.81 225.075 416.819C229.009 421.347 235.171 424.316 241.777 424.316C246.231 424.316 250.463 422.98 254.1 419.862V423.425H265.532V359.511H253.655Z" fill="white"/>
<path d="M87.0754 359.511H74.7527V423.351H114.022V412.439H87.0754V359.511Z" fill="white"/>
</svg>
