<svg width="460" height="1080" viewBox="0 0 460 1080" fill="none" xmlns="http://www.w3.org/2000/svg">
<path d="M164.413 391.663L215.337 442.587L165.072 492.852L165.69 594L316.525 443.165L163.795 290.516L164.413 391.663Z" fill="#94A2B6" fill-opacity="0.09"/>
<path d="M98.0788 420.111L119.823 441.856L98.3603 463.319L98.6241 506.509L163.031 442.102L97.8149 376.921L98.0788 420.111Z" fill="#94A2B6" fill-opacity="0.09"/>
<path d="M316.887 237.763L367.812 288.688L317.547 338.952L318.165 440.1L469 289.265L316.269 136.616L316.887 237.763Z" fill="#94A2B6" fill-opacity="0.09"/>
<path d="M250.554 266.211L272.298 287.956L250.835 309.419L251.099 352.609L315.506 288.202L250.29 223.021L250.554 266.211Z" fill="#94A2B6" fill-opacity="0.09"/>
<path d="M151.413 76.1883L202.337 127.112L152.072 177.377L152.69 278.525L303.525 127.69L150.795 -24.9594L151.413 76.1883Z" fill="#94A2B6" fill-opacity="0.09"/>
<path d="M85.0789 104.636L106.823 126.381L85.3604 147.844L85.6243 191.034L150.031 126.627L84.815 61.4461L85.0789 104.636Z" fill="#94A2B6" fill-opacity="0.09"/>
<path d="M469.413 712.663L520.337 763.587L470.072 813.852L470.69 915L621.525 764.165L468.795 611.516L469.413 712.663Z" fill="#94A2B6" fill-opacity="0.09"/>
<path d="M403.079 741.111L424.823 762.856L403.36 784.319L403.624 827.509L468.031 763.102L402.815 697.921L403.079 741.111Z" fill="#94A2B6" fill-opacity="0.09"/>
<path d="M470.838 389.188L521.762 440.112L471.497 490.377L472.115 591.525L622.95 440.69L470.22 288.041L470.838 389.188Z" fill="#94A2B6" fill-opacity="0.09"/>
<path d="M404.504 417.636L426.248 439.381L404.785 460.844L405.049 504.034L469.456 439.627L404.24 374.446L404.504 417.636Z" fill="#94A2B6" fill-opacity="0.09"/>
<path d="M339.587 882.663L288.663 933.587L338.928 983.852L338.31 1085L187.475 934.165L340.205 781.516L339.587 882.663Z" fill="#94A2B6" fill-opacity="0.09"/>
<path d="M405.921 911.111L384.177 932.856L405.64 954.319L405.376 997.509L340.969 933.102L406.185 867.921L405.921 911.111Z" fill="#94A2B6" fill-opacity="0.09"/>
<path d="M187.113 728.763L136.188 779.688L186.453 829.952L185.835 931.1L35.0001 780.265L187.731 627.616L187.113 728.763Z" fill="#94A2B6" fill-opacity="0.09"/>
<path d="M253.446 757.211L231.702 778.956L253.165 800.419L252.901 843.609L188.494 779.202L253.71 714.021L253.446 757.211Z" fill="#94A2B6" fill-opacity="0.09"/>
<path d="M338.162 559.188L287.238 610.112L337.503 660.377L336.885 761.525L186.05 610.69L338.78 458.041L338.162 559.188Z" fill="#94A2B6" fill-opacity="0.09"/>
<path d="M404.496 587.636L382.752 609.381L404.215 630.844L403.951 674.034L339.544 609.627L404.76 544.446L404.496 587.636Z" fill="#94A2B6" fill-opacity="0.09"/>
</svg>
